<svg xmlns="http://www.w3.org/2000/svg" width="20.422" height="20.761" viewBox="0 0 20.422 20.761">
  <g id="カレンダーの無料アイコン7_3_" data-name="カレンダーの無料アイコン7(3)" transform="translate(-4.175)">
    <path id="パス_137" data-name="パス 137" d="M140.777,3.641A1.019,1.019,0,0,0,141.8,2.622v-1.6a1.019,1.019,0,0,0-2.038,0v1.6A1.019,1.019,0,0,0,140.777,3.641Z" transform="translate(-130.085)" fill="#fff"/>
    <path id="パス_138" data-name="パス 138" d="M326.069,3.641a1.019,1.019,0,0,0,1.019-1.019v-1.6a1.019,1.019,0,0,0-2.038,0v1.6A1.019,1.019,0,0,0,326.069,3.641Z" transform="translate(-307.864)" fill="#fff"/>
    <path id="パス_139" data-name="パス 139" d="M21.735,35.807H20.119v1.17a1.914,1.914,0,1,1-3.828,0v-1.17H12.606v1.17a1.914,1.914,0,1,1-3.828,0v-1.17H7.037a2.862,2.862,0,0,0-2.862,2.862V52.254a2.862,2.862,0,0,0,2.862,2.862h14.7A2.862,2.862,0,0,0,24.6,52.254V38.669A2.862,2.862,0,0,0,21.735,35.807ZM23.2,52.254a1.471,1.471,0,0,1-1.469,1.469H7.037a1.471,1.471,0,0,1-1.469-1.469V40.477H23.2Z" transform="translate(0 -34.355)" fill="#fff"/>
    <path id="パス_140" data-name="パス 140" d="M182.013,390.646a1.044,1.044,0,1,0-1.044-1.044A1.044,1.044,0,0,0,182.013,390.646Z" transform="translate(-169.625 -372.802)" fill="#fff"/>
    <path id="パス_141" data-name="パス 141" d="M182.013,292.085a1.044,1.044,0,1,0-1.044-1.044A1.044,1.044,0,0,0,182.013,292.085Z" transform="translate(-169.625 -278.237)" fill="#fff"/>
    <path id="パス_142" data-name="パス 142" d="M83.465,390.646a1.044,1.044,0,1,0-1.044-1.044A1.044,1.044,0,0,0,83.465,390.646Z" transform="translate(-75.073 -372.802)" fill="#fff"/>
    <path id="パス_143" data-name="パス 143" d="M83.465,292.085a1.044,1.044,0,1,0-1.044-1.044A1.044,1.044,0,0,0,83.465,292.085Z" transform="translate(-75.073 -278.237)" fill="#fff"/>
    <path id="パス_144" data-name="パス 144" d="M379.112,193.542a1.044,1.044,0,1,0-1.044-1.044A1.044,1.044,0,0,0,379.112,193.542Z" transform="translate(-358.732 -183.69)" fill="#fff"/>
    <path id="パス_145" data-name="パス 145" d="M280.565,193.542a1.044,1.044,0,1,0-1.044-1.044A1.044,1.044,0,0,0,280.565,193.542Z" transform="translate(-264.181 -183.69)" fill="#fff"/>
    <path id="パス_146" data-name="パス 146" d="M280.565,292.085a1.044,1.044,0,1,0-1.044-1.044A1.044,1.044,0,0,0,280.565,292.085Z" transform="translate(-264.181 -278.237)" fill="#fff"/>
    <path id="パス_147" data-name="パス 147" d="M379.112,292.085a1.044,1.044,0,1,0-1.044-1.044A1.044,1.044,0,0,0,379.112,292.085Z" transform="translate(-358.732 -278.237)" fill="#fff"/>
    <path id="パス_148" data-name="パス 148" d="M280.565,390.646a1.044,1.044,0,1,0-1.044-1.044A1.044,1.044,0,0,0,280.565,390.646Z" transform="translate(-264.181 -372.802)" fill="#fff"/>
    <path id="パス_149" data-name="パス 149" d="M182.013,193.542a1.044,1.044,0,1,0-1.044-1.044A1.044,1.044,0,0,0,182.013,193.542Z" transform="translate(-169.625 -183.69)" fill="#fff"/>
  </g>
</svg>
