<svg xmlns="http://www.w3.org/2000/svg" width="13.717" height="13.717" viewBox="0 0 13.717 13.717">
  <g id="注意のアイコン_4_" data-name="注意のアイコン(4)" transform="translate(0 0)">
    <path id="パス_62" data-name="パス 62" d="M11.708,2.009a6.858,6.858,0,1,0,2.009,4.85A6.84,6.84,0,0,0,11.708,2.009ZM10.7,3.015A5.436,5.436,0,1,1,6.858,1.422,5.415,5.415,0,0,1,10.7,3.015Z" transform="translate(0 0)" fill="#f9375d"/>
    <path id="パス_63" data-name="パス 63" d="M228.075,126.086a.306.306,0,0,0,.083.16.219.219,0,0,0,.167.077.23.23,0,0,0,.249-.237l.5-3.837a2.516,2.516,0,0,0,.013-.288.8.8,0,0,0-.2-.525.694.694,0,0,0-.563-.237.681.681,0,0,0-.57.243.807.807,0,0,0-.192.519,2.681,2.681,0,0,0,.013.288Z" transform="translate(-221.466 -117.953)" fill="#f9375d"/>
    <path id="パス_64" data-name="パス 64" d="M227.863,334.75a.774.774,0,1,0-.775-.774.769.769,0,0,0,.224.544A.738.738,0,0,0,227.863,334.75Z" transform="translate(-221.004 -324.28)" fill="#f9375d"/>
  </g>
</svg>
