<svg xmlns="http://www.w3.org/2000/svg" width="17.586" height="22.761" viewBox="0 0 17.586 22.761">
  <g id="_アンケート_カルテのアイコン素材" data-name="・アンケート・カルテのアイコン素材" transform="translate(-58.203)">
    <path id="パス_136" data-name="パス 136" d="M75.615,3.91a2.2,2.2,0,0,0-2.029-1.345h-1.9V2.238H68.942a1.965,1.965,0,1,0-3.891,0H62.3v.327h-1.9a2.2,2.2,0,0,0-2.2,2.2V20.559a2.2,2.2,0,0,0,2.2,2.2H73.586a2.2,2.2,0,0,0,2.2-2.2V4.768A2.2,2.2,0,0,0,75.615,3.91ZM67,1.236a.73.73,0,0,1,.729.729.717.717,0,0,1-.054.273H66.32a.728.728,0,0,1,.676-1Zm7.483,19.323a.878.878,0,0,1-.07.347.9.9,0,0,1-.324.394.885.885,0,0,1-.5.151H60.406a.893.893,0,0,1-.347-.069.905.905,0,0,1-.393-.324.879.879,0,0,1-.152-.5V4.768a.881.881,0,0,1,.07-.347.892.892,0,0,1,.822-.545h1.9v.273a.928.928,0,0,0,.929.928h7.531a.928.928,0,0,0,.929-.928V3.875h1.9a.882.882,0,0,1,.347.07.892.892,0,0,1,.545.822Z" fill="#fff"/>
    <rect id="長方形_2001" data-name="長方形 2001" width="9.497" height="1.091" transform="translate(62.247 7.696)" fill="#fff"/>
    <rect id="長方形_2002" data-name="長方形 2002" width="9.497" height="1.091" transform="translate(62.247 10.698)" fill="#fff"/>
    <rect id="長方形_2003" data-name="長方形 2003" width="9.497" height="1.091" transform="translate(62.247 13.7)" fill="#fff"/>
    <rect id="長方形_2004" data-name="長方形 2004" width="4.748" height="1.092" transform="translate(66.996 17.521)" fill="#fff"/>
  </g>
</svg>
