<svg xmlns="http://www.w3.org/2000/svg" width="24" height="24" viewBox="0 0 24 24">
  <g id="グループ_1207" data-name="グループ 1207" transform="translate(-2079 189)">
    <rect id="長方形_2120" data-name="長方形 2120" width="24" height="24" rx="2" transform="translate(2079 -189)" fill="#f20320"/>
    <g id="注意のアイコン_8_" data-name="注意のアイコン(8)" transform="translate(2083.281 -184.719)">
      <path id="パス_164" data-name="パス 164" d="M13.317,2.285A7.8,7.8,0,1,0,15.6,7.8,7.78,7.78,0,0,0,13.317,2.285ZM12.173,3.429A6.183,6.183,0,1,1,7.8,1.618,6.159,6.159,0,0,1,12.173,3.429Z" transform="translate(0 0)" fill="#fff"/>
      <path id="パス_165" data-name="パス 165" d="M228.146,126.758a.347.347,0,0,0,.095.182.248.248,0,0,0,.189.087.262.262,0,0,0,.284-.27l.568-4.364a2.855,2.855,0,0,0,.014-.328.909.909,0,0,0-.225-.6.79.79,0,0,0-.641-.269.775.775,0,0,0-.648.276.918.918,0,0,0-.219.59,3.04,3.04,0,0,0,.014.328Z" transform="translate(-220.629 -117.507)" fill="#fff"/>
      <path id="パス_166" data-name="パス 166" d="M227.969,334.962a.881.881,0,1,0-.881-.881.874.874,0,0,0,.255.619A.839.839,0,0,0,227.969,334.962Z" transform="translate(-220.168 -323.053)" fill="#fff"/>
    </g>
  </g>
</svg>
