<svg id="メニューの無料アイコン4_1_" data-name="メニューの無料アイコン4(1)" xmlns="http://www.w3.org/2000/svg" width="20.89" height="20.89" viewBox="0 0 20.89 20.89">
  <path id="パス_150" data-name="パス 150" d="M2.042,0A2.042,2.042,0,1,0,4.084,2.042,2.042,2.042,0,0,0,2.042,0Z" fill="#fff"/>
  <path id="パス_151" data-name="パス 151" d="M207.995,0a2.042,2.042,0,1,0,2.042,2.042A2.042,2.042,0,0,0,207.995,0Z" transform="translate(-197.55)" fill="#fff"/>
  <path id="パス_152" data-name="パス 152" d="M413.949,4.084a2.042,2.042,0,1,0-2.042-2.042A2.042,2.042,0,0,0,413.949,4.084Z" transform="translate(-395.101)" fill="#fff"/>
  <path id="パス_153" data-name="パス 153" d="M2.042,205.953a2.042,2.042,0,1,0,2.042,2.042A2.042,2.042,0,0,0,2.042,205.953Z" transform="translate(0 -197.55)" fill="#fff"/>
  <path id="パス_154" data-name="パス 154" d="M207.995,205.953a2.042,2.042,0,1,0,2.042,2.042A2.042,2.042,0,0,0,207.995,205.953Z" transform="translate(-197.55 -197.55)" fill="#fff"/>
  <path id="パス_155" data-name="パス 155" d="M413.949,205.953a2.042,2.042,0,1,0,2.042,2.042A2.042,2.042,0,0,0,413.949,205.953Z" transform="translate(-395.101 -197.55)" fill="#fff"/>
  <path id="パス_156" data-name="パス 156" d="M2.042,411.907a2.042,2.042,0,1,0,2.042,2.042A2.042,2.042,0,0,0,2.042,411.907Z" transform="translate(0 -395.101)" fill="#fff"/>
  <path id="パス_157" data-name="パス 157" d="M207.995,411.907a2.042,2.042,0,1,0,2.042,2.042A2.042,2.042,0,0,0,207.995,411.907Z" transform="translate(-197.55 -395.101)" fill="#fff"/>
  <path id="パス_158" data-name="パス 158" d="M413.949,411.907a2.042,2.042,0,1,0,2.042,2.042A2.042,2.042,0,0,0,413.949,411.907Z" transform="translate(-395.101 -395.101)" fill="#fff"/>
</svg>
